<?xml version="1.0" encoding="UTF-8"?>
<svg width="208px" height="22px" viewBox="0 0 208 22" version="1.1" xmlns="http://www.w3.org/2000/svg" xmlns:xlink="http://www.w3.org/1999/xlink">
    <title>LOGO</title>
    <g id="WEBSITE-V2-Feedback" stroke="none" stroke-width="1" fill="none" fill-rule="evenodd">
        <g id="ASSETS" transform="translate(-52.000000, -19.000000)">
            <g id="Group-21" transform="translate(52.000000, 19.000000)">
                <path d="M199.137296,-0.000293333333 C199.915099,-0.000293333333 200.673859,0.0745066667 201.412113,0.224106667 C202.150366,0.373706667 202.863718,0.564373333 203.552169,0.793173333 C204.242085,1.02344 204.885127,1.27277333 205.482761,1.54264 C206.081859,1.81250667 206.620901,2.06770667 207.099887,2.30677333 L204.584845,7.13210667 C203.987211,6.77277333 203.367606,6.45304 202.728958,6.17290667 C202.189915,5.93384 201.586423,5.70797333 200.918479,5.49824 C200.250535,5.28850667 199.597239,5.18437333 198.958592,5.18437333 C198.440056,5.18437333 198.024056,5.26504 197.716451,5.42344 C197.40738,5.58330667 197.252113,5.85317333 197.252113,6.23304 C197.252113,6.51317333 197.34293,6.74197333 197.521634,6.92237333 C197.701803,7.10130667 197.96107,7.26704 198.299437,7.41664 C198.637803,7.56624 199.053803,7.71144 199.543042,7.85077333 C200.030817,7.99157333 200.584507,8.16170667 201.202648,8.36117333 C202.179662,8.66037333 203.06293,8.99037333 203.852451,9.34970667 C204.640507,9.70904 205.312845,10.1343733 205.872394,10.6227733 C206.430479,11.11264 206.861127,11.7081067 207.159944,12.40624 C207.458761,13.10584 207.608169,13.95504 207.608169,14.95384 C207.608169,16.2327733 207.372338,17.3063733 206.90507,18.17464 C206.436338,19.0443733 205.816732,19.7395733 205.049183,20.2573067 C204.280169,20.7779733 203.413014,21.15344 202.444789,21.38224 C201.478028,21.61104 200.503944,21.7269067 199.52693,21.7269067 C198.749127,21.7269067 197.950817,21.6667733 197.132,21.5465067 C196.314648,21.42624 195.50169,21.2575733 194.693127,21.0361067 C193.884563,20.8175733 193.106761,20.5579733 192.358254,20.2573067 C191.611211,19.9581067 190.916901,19.6193067 190.278254,19.23944 L192.791831,14.1149067 C193.492,14.5549067 194.22,14.9435733 194.977296,15.28384 C195.615944,15.58304 196.339549,15.8529067 197.148113,16.0919733 C197.956676,16.33104 198.778423,16.4513067 199.616282,16.4513067 C200.25493,16.4513067 200.700225,16.3677067 200.949239,16.1975733 C201.196789,16.02744 201.322761,15.80304 201.322761,15.5229067 C201.322761,15.2237067 201.196789,14.9685067 200.949239,14.7587733 C200.700225,14.54904 200.354535,14.3657067 199.915099,14.2043733 C199.477127,14.0445067 198.973239,13.88464 198.404901,13.7247733 C197.836563,13.5663733 197.231606,13.3757067 196.594423,13.1557067 C195.655493,12.8359733 194.848394,12.4913067 194.170197,12.1217067 C193.492,11.7521067 192.932451,11.33264 192.493014,10.8633067 C192.053577,10.3939733 191.731324,9.85864 191.520394,9.26024 C191.31093,8.66037333 191.20693,7.97104 191.20693,7.19224 C191.20693,6.01304 191.420789,4.97464 191.849972,4.07557333 C192.279155,3.17650667 192.862141,2.42704 193.600394,1.82717333 C194.338648,1.22877333 195.182366,0.774106667 196.130085,0.46464 C197.077803,0.155173333 198.081183,-0.000293333333 199.137296,-0.000293333333 Z M136.810535,0.17952 L136.810535,16.3612533 L145.593408,16.3612533 L145.593408,21.4564533 L130.974817,21.4564533 L130.974817,0.17952 L136.810535,0.17952 Z M160.108586,0.17908 L168.011121,21.4560133 L161.845825,21.4560133 L160.558276,17.2921467 L154.902727,17.2921467 L153.644473,21.4560133 L147.449882,21.4560133 L155.380248,0.17908 L160.108586,0.17908 Z M182.825994,0.179373333 C183.564248,0.179373333 184.232192,0.33924 184.83129,0.658973333 C185.428924,0.978706667 185.93867,1.39230667 186.3576,1.90270667 C186.77653,2.41164 187.100248,2.99097333 187.33022,3.64070667 C187.558727,4.29044 187.67591,4.95484 187.67591,5.63390667 C187.67591,6.63270667 187.421037,7.58750667 186.91129,8.49537333 C186.401544,9.40470667 185.639854,10.08964 184.621825,10.5487067 C185.839065,10.90804 186.801431,11.53284 187.510389,12.42164 C188.219346,13.31044 188.572361,14.5043067 188.572361,16.0017733 C188.572361,16.96244 188.373149,17.78524 187.974727,18.4745733 C187.574839,19.1653733 187.025544,19.7285733 186.328304,20.1685733 C185.6296,20.6085733 184.815177,20.9327067 183.889431,21.14244 C182.960755,21.3521733 181.977882,21.4563067 180.940811,21.4563067 L170.493938,21.4563067 L170.493938,0.179373333 L182.825994,0.179373333 Z M181.150276,12.97604 L176.331121,12.97604 L176.331121,16.5429733 L180.940811,16.5429733 C181.419797,16.5429733 181.822614,16.3919067 182.152192,16.0927067 C182.481769,15.7935067 182.645825,15.3637733 182.645825,14.8035067 C182.645825,14.2843067 182.50667,13.8501733 182.228361,13.49964 C181.947121,13.1505733 181.588248,12.97604 181.150276,12.97604 Z M157.744417,6.26281333 L155.769882,13.3952133 L159.631065,13.3952133 L157.744417,6.26281333 Z M180.491121,5.15430667 L176.331121,5.15430667 L176.331121,8.42057333 L180.310952,8.42057333 C180.710839,8.42057333 181.075572,8.31057333 181.403685,8.09057333 C181.733262,7.87057333 181.897318,7.43204 181.897318,6.77204 C181.897318,6.19270667 181.759628,5.77910667 181.478389,5.52830667 C181.200079,5.27897333 180.870501,5.15430667 180.491121,5.15430667 Z" id="Labs" fill="#BCDDF5"></path>
                <path d="M76.2794592,0.0594 C78.1748958,0.0594 79.8315718,0.484733333 81.2480225,1.33246667 C82.6644732,2.18166667 83.713262,3.3066 84.3899944,4.70433333 L79.9311775,7.88113333 C79.7510085,7.36193333 79.5166423,6.9322 79.2280789,6.5934 C78.9380507,6.25313333 78.6245859,5.98326667 78.2847549,5.7838 C77.9463887,5.58433333 77.5860507,5.44353333 77.2081352,5.36433333 C76.8287549,5.28513333 76.4801352,5.24406667 76.1608113,5.24406667 C75.421093,5.24406667 74.7883042,5.4098 74.2595155,5.73833333 C73.7307268,6.06833333 73.2912901,6.49806667 72.9426704,7.02753333 C72.5940507,7.557 72.3391775,8.15686667 72.1795155,8.82566667 C72.0198535,9.49446667 71.9392901,10.1588667 71.9392901,10.8188667 C71.9392901,11.5566 72.0345014,12.2664667 72.2249239,12.9455333 C72.4138817,13.6246 72.6936563,14.2244667 73.0627831,14.7436667 C73.4304451,15.2628667 73.8801352,15.6794 74.4089239,15.9874 C74.9377127,16.2968667 75.5412056,16.4523333 76.2194028,16.4523333 C76.5592338,16.4523333 76.9078535,16.4083333 77.2681915,16.3174 C77.6270648,16.2279333 77.9712901,16.0783333 78.3008676,15.8671333 C78.6289803,15.6588667 78.929262,15.3875333 79.1973183,15.059 C79.4683042,14.729 79.6821634,14.3256667 79.8418254,13.8460667 L84.6009239,16.6914 C84.3006423,17.4702 83.8465577,18.1712667 83.2386704,18.7902 C82.6293183,19.4091333 81.9364732,19.9283333 81.1586704,20.3478 C80.3808676,20.7672667 79.5517972,21.087 78.6743887,21.307 C77.7955155,21.527 76.9386141,21.637 76.1007549,21.637 C74.6227831,21.637 73.2663887,21.3216667 72.030107,20.6924667 C70.7923606,20.0632667 69.7303887,19.2287333 68.8427268,18.1903333 C67.9536,17.1519333 67.2607549,15.9727333 66.7627268,14.6542 C66.2632338,13.3356667 66.0142197,11.9966 66.0142197,10.6384667 C66.0142197,9.34046667 66.2427268,8.06153333 66.7026704,6.80166667 C67.1611493,5.54326667 67.8349521,4.4154 68.7226141,3.4166 C69.6102761,2.4178 70.6868958,1.6082 71.9554028,0.9878 C73.2224451,0.370333333 74.6637972,0.0594 76.2794592,0.0594 Z M63.3594366,0.1804 L63.3594366,21.4573333 L57.5222535,21.4573333 L57.5222535,0.1804 L63.3594366,0.1804 Z M5.8371831,0.17952 L5.8371831,16.3612533 L14.6185915,16.3612533 L14.6185915,21.4564533 L0,21.4564533 L0,0.17952 L5.8371831,0.17952 Z M32.2187606,0.17952 L32.2187606,5.27325333 L23.1780845,5.27325333 L23.1780845,8.27112 L30.9019155,8.27112 L30.9019155,13.00552 L23.1780845,13.00552 L23.1780845,16.3612533 L32.4868169,16.3612533 L32.4868169,21.4564533 L17.3423662,21.4564533 L17.3423662,0.17952 L32.2187606,0.17952 Z M40.8377239,0.17952 L44.698907,6.89245333 L48.5586254,0.17952 L54.8440338,0.17952 L48.0371606,10.96832 L54.6038085,21.4564533 L48.3198648,21.4564533 L44.698907,15.0441867 L41.0779493,21.4564533 L34.7617803,21.4564533 L41.329893,10.96832 L34.5230197,0.17952 L40.8377239,0.17952 Z M97.7786028,0.17908 L105.679673,21.4560133 L99.5143775,21.4560133 L98.2268282,17.2921467 L92.5712789,17.2921467 L91.3144901,21.4560133 L85.1184338,21.4560133 L93.0502648,0.17908 L97.7786028,0.17908 Z M113.828879,0.17952 L113.828879,16.3612533 L122.611752,16.3612533 L122.611752,21.4564533 L107.993161,21.4564533 L107.993161,0.17952 L113.828879,0.17952 Z M95.4144338,6.26281333 L93.4384338,13.3952133 L97.2996169,13.3952133 L95.4144338,6.26281333 Z" id="Lexical" fill="#FEFEFE"></path>
            </g>
        </g>
    </g>
</svg>